<svg width="1298" height="278" viewBox="0 0 1298 278" fill="none" xmlns="http://www.w3.org/2000/svg">
<g clip-path="url(#clip0_13_1264)">
<path d="M836.514 166.968C782.389 160.252 724.255 173.543 693.451 177.055C693.451 195.759 724.819 231.465 771.283 233.839C772.828 233.918 774.246 234.731 775.165 235.975C787.227 252.305 814.027 259.175 836.514 259.175V166.968Z" fill="#B4885F"/>
<path d="M459.548 184.255C512.666 171.825 560.121 168.433 591.119 168.653C593.085 187.342 567.825 217.763 517.802 230.918C516.569 231.242 515.512 232.057 514.822 233.13C505.65 247.394 484.872 256.631 464.708 258.785L459.548 184.255Z" fill="#653A25"/>
<path d="M737.451 241.634C673.04 244.6 610.292 249.263 546.134 255.671C542.975 255.961 540.531 252.668 540.266 248.412C537.671 203.525 534.399 158.92 530.414 114.135C530.067 109.884 533.29 106.176 537.123 105.86C600.195 100.533 662.811 95.6591 726.087 91.9952C730.772 91.6981 734.432 94.8899 734.883 99.1327C740.764 144.664 743.908 187.519 744.735 233.41C744.908 237.673 741.72 241.379 737.462 241.633L737.451 241.634Z" fill="#EEE9E3"/>
<path d="M732.055 258.075C706.635 257.13 681.271 254.931 655.832 254.264C617.326 253.261 578.795 253.675 540.276 253.136C536.779 253.081 534.697 249.54 534.877 245.686C535.857 227.508 538.182 209.447 538.662 191.245C539.373 164.541 538.225 137.8 538.344 111.092C538.383 106.409 541.933 103.071 546.301 103.137C579.79 103.558 613.294 102.457 646.771 103.319C676.45 104.083 706.042 106.833 735.71 108.015C740.338 108.39 743.828 112.351 744.375 116.84C748.104 160.699 745.461 207.369 740.43 251.072C739.944 255.058 735.992 258.211 732.055 258.075Z" fill="#F2F0EF"/>
<path d="M737.151 246.728C711.738 247.851 686.388 250.157 660.956 251.013C623.259 252.276 585.529 252.191 547.818 253.013C544.356 253.093 542.082 249.715 541.879 245.711C539.222 200.678 535.579 156.085 537.138 110.935C537.23 108.095 540.747 105.479 545.09 105.312C608.194 102.798 671.262 99.1587 734.377 96.6219C739.04 96.6531 742.77 100.436 743.523 104.898C746.658 128.605 745.957 152.322 746.562 176.159C747.099 197.231 746.597 218.186 745.121 239.209C744.834 243.171 741.074 246.551 737.139 246.717L737.151 246.728Z" fill="#F2F1EF"/>
<path d="M737.199 252.548C710.16 252.246 683.156 250.712 656.105 250.701C619.979 250.701 583.877 252.107 547.763 252.548C544.393 252.583 542.209 249.097 542.243 245.367C542.464 224.463 543.382 203.571 543.452 182.655C543.522 159.811 540.489 137.176 541.453 114.308C541.837 109.683 545.067 105.047 549.912 104.42C612.857 100.643 676.207 102.491 739.233 102.491C743.904 102.642 747.692 106.36 748.366 110.904C750.655 132.749 749.214 154.431 749.04 176.323C748.854 199.341 747.739 222.267 745.508 245.193C745.089 249.341 741.232 252.583 737.199 252.548Z" fill="#F8F8F7"/>
<path d="M834.19 162.328C782.169 150.919 727.047 155.248 705.828 160.502C703.853 160.991 702.484 162.807 702.85 164.808C705.729 180.53 728.846 185.765 753.849 187.379C755.583 187.491 757.109 188.552 757.885 190.107C773.553 221.49 811.41 235.346 834.201 235.346V162.328H834.19Z" fill="#C4986F"/>
<path d="M723 159.784C723 158.569 721.933 157.627 720.728 157.791C714.77 158.602 709.726 159.537 705.828 160.502C703.853 160.991 702.484 162.807 702.85 164.808L721.307 161.778C722.283 161.618 723 160.774 723 159.784Z" fill="#EEE3D9"/>
<path d="M460.965 167.087C512.202 157.248 557.214 156.071 588.134 157.27C590.488 157.362 592.449 159.25 592.083 161.577C589.657 176.982 567.152 183.577 542.621 186.785C540.986 186.999 539.587 188.054 538.878 189.541C524.146 220.422 488.549 238.434 465.787 239.945L460.953 167.087L460.965 167.087Z" fill="#804528"/>
<path d="M574 159.261C574 157.972 575.053 156.931 576.341 156.951C580.468 157.016 584.404 157.126 588.134 157.27C590.488 157.362 592.449 159.25 592.083 161.577C587.509 161.577 583.003 161.577 576.317 161.577C575.038 161.577 574 160.54 574 159.261Z" fill="#CF6D58"/>
<path d="M0 10C101.055 70.171 269.271 171.967 468.966 144.936C471.135 144.642 473.418 144.819 475.13 146.182C490.993 158.809 529.955 230.996 473.581 260.623C472.746 261.062 471.881 261.399 470.967 261.635C175.667 274.925 59.667 223.425 0 194.301V10Z" fill="#A7477C"/>
<path d="M1297.67 0C1185.59 76.5086 1030.52 170.245 833.019 145.069C828.021 144.431 822.768 145.112 819.921 149.27C806.353 169.079 789.549 237.665 825.382 260.852C1018.11 288.6 1262.75 243.596 1297.67 193.864V0Z" fill="#3C64EF"/>
<mask id="mask0_13_1264" style="mask-type:alpha" maskUnits="userSpaceOnUse" x="0" y="0" width="1298" height="270">
<path d="M1297.33 0C1183.82 77.4921 1026.2 172.658 825.049 144.038C811.907 148.524 784.089 234.347 825.049 260.852C1017.77 288.6 1262.42 243.596 1297.33 193.864V0Z" fill="#A7477C"/>
<path d="M0 10C101.055 70.171 269.271 171.967 468.966 144.936C471.135 144.642 473.418 144.819 475.13 146.182C490.993 158.809 529.955 230.996 473.581 260.623C472.746 261.062 471.881 261.399 470.967 261.635C175.667 274.925 59.667 223.425 0 194.301V10Z" fill="#A7477C"/>
</mask>
<g mask="url(#mask0_13_1264)">
<path d="M1050.78 221.077C1077.18 221.077 1098.57 201.735 1098.57 177.875C1098.57 154.015 1077.18 134.673 1050.78 134.673C1024.39 134.673 1002.99 154.015 1002.99 177.875C1002.99 201.735 1024.39 221.077 1050.78 221.077Z" fill="#2F2789"/>
<path d="M1177.91 258.423C1204.31 258.423 1225.71 239.081 1225.71 215.221C1225.71 191.361 1204.31 172.019 1177.91 172.019C1151.52 172.019 1130.12 191.361 1130.12 215.221C1130.12 239.081 1151.52 258.423 1177.91 258.423Z" fill="#2F2789"/>
<path d="M1230.48 115.047C1256.88 115.047 1278.27 95.7048 1278.27 71.8449C1278.27 47.985 1256.88 28.6427 1230.48 28.6427C1204.09 28.6427 1182.69 47.985 1182.69 71.8449C1182.69 95.7048 1204.09 115.047 1230.48 115.047Z" fill="#2F2789"/>
<path d="M970.501 301.614C996.896 301.614 1018.29 282.272 1018.29 258.412C1018.29 234.552 996.896 215.209 970.501 215.209C944.106 215.209 922.709 234.552 922.709 258.412C922.709 282.272 944.106 301.614 970.501 301.614Z" fill="#2F2789"/>
<path d="M918.595 187.241C944.99 187.241 966.387 167.898 966.387 144.038C966.387 120.178 944.99 100.836 918.595 100.836C892.2 100.836 870.803 120.178 870.803 144.038C870.803 167.898 892.2 187.241 918.595 187.241Z" fill="#2F2789"/>
<path d="M832.923 290.296C859.318 290.296 880.715 270.954 880.715 247.094C880.715 223.234 859.318 203.892 832.923 203.892C806.528 203.892 785.131 223.234 785.131 247.094C785.131 270.954 806.528 290.296 832.923 290.296Z" fill="#2F2789"/>
<path d="M1292.67 230.443C1319.06 230.443 1340.46 211.101 1340.46 187.241C1340.46 163.381 1319.06 144.038 1292.67 144.038C1266.28 144.038 1244.88 163.381 1244.88 187.241C1244.88 211.101 1266.28 230.443 1292.67 230.443Z" fill="#2F2789"/>
<path d="M1118.71 134.673C1145.1 134.673 1166.5 115.331 1166.5 91.4707C1166.5 67.6107 1145.1 48.2684 1118.71 48.2684C1092.32 48.2684 1070.92 67.6107 1070.92 91.4707C1070.92 115.331 1092.32 134.673 1118.71 134.673Z" fill="#2F2789"/>
<path d="M1332.8 107.913C1359.2 107.913 1380.6 88.5703 1380.6 64.7104C1380.6 40.8504 1359.2 21.5081 1332.8 21.5081C1306.41 21.5081 1285.01 40.8504 1285.01 64.7104C1285.01 88.5703 1306.41 107.913 1332.8 107.913Z" fill="#2F2789"/>
<path d="M71.016 254.38C103.04 256.401 126.094 219.009 109.954 191.308C106.003 184.127 99.9491 178.003 97.5903 170.16C91.1181 148.628 114.555 129.897 118.82 107.82C121.399 94.027 116.449 76.1675 128.522 65.9537C134.274 61.3174 144.278 61.7009 147.799 68.1847C152.273 76.4231 144.127 85.44 140.165 93.9341C125.513 127.434 168.657 157.459 162.591 190.889C157.467 219.869 113.451 238.635 123.897 271.228C140.688 304.902 184.553 285.044 190.095 252.962C193.767 238.135 192.117 222.518 189.41 207.494C186.702 192.47 182.961 177.515 182.496 162.247C178.289 149.965 201.25 67.8012 212.916 109.435C214.799 127.108 214.613 146.386 225.466 160.457C236.667 174.982 256.246 179.525 271.817 189.228C295.231 203.81 309.546 231.849 307.641 259.364C306.827 271.182 298.263 285.73 286.981 282.128C271.596 274.61 268.366 255.135 259.047 241.946C240.444 215.79 214.439 222.774 210.499 253.973C209.547 263.187 203.783 273.366 206.979 282.348C243.883 306.68 349.39 337.693 374.245 287.786C382.03 250.057 330.438 231.826 312.858 203.973C293.418 178.503 298.298 161.526 302.319 133.186C303.492 120.985 282.879 106.46 283.704 123.286C286.783 156.716 254.236 163.536 242.942 132.14C235.191 110.515 246.137 93.8062 268.796 92.5165C281.705 90.4598 296.358 88.8679 306.513 97.083C320.062 108.04 317.448 128.793 319.992 146.037C333.332 211.538 386.91 205.472 439.164 211.015C471.142 217.777 501.551 241.598 533.122 233.127C545.357 229.85 557.372 218.451 554.2 206.181C539.106 172.054 466.645 198.791 436.108 195.363C406.571 195.142 373.78 183.859 361.638 156.948C350.378 132 359.953 100.557 345.811 77.1319C338.433 64.9079 325.767 57.0181 313.567 49.5931C289.711 35.0684 265.507 20.3927 238.689 12.6074C213.718 5.3567 187.353 4.34578 162.068 -1.73135C140.63 -6.86728 119.598 -15.6867 97.5671 -15.0941C61.4645 -12.8514 44.186 10.1557 50.8208 44.2364C48.1715 91.6334 -31.935 99.9066 -30.2502 149.07C-30.3547 153.032 -27.3685 155.333 -23.4991 154.659C1.70415 152.707 15.8802 124.401 38.5736 113.258C48.2529 108.505 59.7564 106.751 67.4371 99.1746C90.7928 79.9206 56.073 30.0371 80.9044 22.856C91.7107 19.161 105.771 20.9736 111.441 30.8853C120.156 46.142 103.133 63.2463 100.414 80.6062C98.1132 95.2936 104.713 114.559 92.0709 122.379C57.8973 143.783 18.7038 162.107 1.86683 201.022C-21.4772 234.301 17.3211 266.522 44.5113 236.729C49.5194 230.42 52.0641 222.437 57.049 216.104C68.9593 200.313 90.1188 209.934 81.6596 228.828C76.1867 239.065 64.7413 244.514 55.8406 251.486C59.954 253.926 66.2635 254.961 71.0043 254.356L71.016 254.38Z" fill="#EF8E8E"/>
</g>
</g>
<defs>
<clipPath id="clip0_13_1264">
<rect width="1297.33" height="278" fill="white" transform="translate(0.333008)"/>
</clipPath>
</defs>
</svg>
